<?xml version="1.0" encoding="utf-8"?>
<!-- Generator: Adobe Illustrator 25.0.1, SVG Export Plug-In . SVG Version: 6.00 Build 0)  -->
<svg version="1.1" id="Layer_1" xmlns="http://www.w3.org/2000/svg" xmlns:xlink="http://www.w3.org/1999/xlink" x="0px" y="0px"
	 viewBox="0 0 300 300" style="enable-background:new 0 0 300 300;" xml:space="preserve">
<style type="text/css">
	.st0{fill:#FFFFFF;}
	.st1{fill:#E6E6E6;}
</style>
<g>
	<circle cx="150" cy="150" r="150"/>
	<g>
		<g>
			<path class="st0" d="M257.7,205c-1.7,0-4.7-0.2-8.4-0.4c-6.8-0.4-16-1.1-26.1-1.1c-10,0-18.8,0.6-25.2,1.1
				c-3.5,0.2-6.3,0.4-8,0.4c-0.2,0-0.3,0-0.3,0c-0.1-0.1-0.3-0.7-0.3-3.4c0-3.3,0.3-3.4,0.9-3.6l5.7-1.5c2.5-0.7,3.4-1.3,3.4-4.1
				v-42.1c0-20.7-5.3-28.1-20.1-28.1c-1.4,0-4.2,0.2-5.7,0.7c-0.5,0.2-0.8,0.7-0.7,1.3c0.4,2.3,0.6,4.8,0.6,7.5v60.7
				c0,2.8,0.9,3.3,3.4,4.1l5.8,1.5c0.6,0.2,0.9,0.3,0.9,3.6c0,2.6-0.2,3.2-0.3,3.4c0,0,0,0,0,0c0,0-0.1,0-0.2,0
				c-1.7,0-4.5-0.2-7.9-0.4c-6.3-0.4-15-1.1-25-1.1c-10,0-18.8,0.6-25.2,1.1c-3.5,0.2-6.3,0.4-8,0.4c-0.2,0-0.3,0-0.3,0
				c-0.1-0.1-0.3-0.7-0.3-3.4c0-3.3,0.3-3.4,0.9-3.6l5.7-1.5c2.5-0.7,3.4-1.3,3.4-4.1v-42.1c0-20.7-5.3-28.1-20.1-28.1
				c-1.6,0-3.9,0.2-5.1,0.7c-0.4,0.2-0.7,0.6-0.7,1v68.4c0,2.8,0.9,3.3,3.4,4.1l5.8,1.5c0.6,0.2,0.9,0.3,0.9,3.6
				c0,2.6-0.2,3.2-0.3,3.4c0,0,0,0,0,0c0,0-0.1,0-0.2,0c-1.7,0-4.5-0.2-7.9-0.4c-6.3-0.4-15-1.1-25-1.1c-10,0-19.4,0.6-26.2,1.1
				c-3.7,0.2-6.7,0.4-8.4,0.4c-0.2,0-0.3,0-0.3,0c-0.1-0.1-0.3-0.7-0.3-3.4c0-3.5,0.3-3.5,0.8-3.6l7.3-1.5c2.7-0.5,3.5-1.5,3.5-4.1
				v-56.2c0-2.9-1.1-3.4-3.5-3.9l-7.3-1.3c-0.6-0.1-0.8-0.1-0.8-3c0-2.7,0.2-2.8,0.9-3c19.6-7.6,37.9-19.9,51.6-29.7
				C94.8,95,95,95,95.4,95c1.3,0,4.2,1.4,4.5,2.1c0,1.1-0.1,2.7-0.2,4.7c-0.2,4-0.6,10-0.6,18.5c0,0.5,0.4,1,0.9,1.1
				c0.1,0,0.2,0,0.2,0c0.4,0,0.8-0.2,1-0.7c5.2-11.3,18.1-24.6,37.3-24.6c17.3,0,29.7,8.5,33.8,23.3c0.1,0.4,0.5,0.8,1,0.8
				c0,0,0.1,0,0.1,0c0.4,0,0.8-0.2,1-0.6c5.7-11.7,19.4-23.5,37.3-23.5c22.1,0,35.2,13.3,35.2,35.5v60.7c0,2.6,0.8,3.6,3.5,4.1
				l7.3,1.5c0.5,0.1,0.8,0.1,0.8,3.6c0,2.6-0.2,3.2-0.3,3.4c0,0,0,0,0,0C257.9,205,257.8,205,257.7,205z"/>
			<path class="st1" d="M95.4,96.1c0.7,0,2.6,0.8,3.3,1.4c0,1.1-0.1,2.5-0.2,4.3c-0.3,4-0.6,10.1-0.6,18.6c0,1,0.7,2,1.8,2.2
				c0.1,0,0.2,0,0.2,0c-0.3,0.4-0.5,0.9-0.5,1.4v68.4c0,3.6,1.6,4.4,4.2,5.1c0,0,0.1,0,0.1,0l5.7,1.5c0.1,0.3,0.1,1,0.1,2.6
				c0,1.1,0,1.8-0.1,2.3c-1.7,0-4.2-0.2-7.2-0.4c-6.3-0.4-15-1.1-25.1-1.1c-10.1,0-19.4,0.6-26.3,1.1c-3.3,0.2-6,0.4-7.8,0.4
				c0-0.4-0.1-1.1-0.1-2.3c0-1.5,0.1-2.2,0.1-2.6l7.1-1.5c3.2-0.6,4.4-2,4.4-5.2v-56.2c0-3.8-1.9-4.5-4.4-5c0,0,0,0,0,0l-7.1-1.2
				c0-0.3-0.1-0.9-0.1-1.9c0-1.1,0.1-1.7,0.1-1.9c0,0,0,0,0.1,0c0,0,0.1,0,0.1,0c19.6-7.7,38-19.9,51.8-29.8
				C95.2,96.1,95.3,96.1,95.4,96.1L95.4,96.1 M211.5,97.4c10.5,0,19.1,3.1,25,9c6,5.9,9.1,14.7,9.1,25.4v60.7c0,3.2,1.1,4.5,4.3,5.2
				l7.1,1.5c0.1,0.4,0.1,1.1,0.1,2.6c0,1.1,0,1.8-0.1,2.3c-1.7,0-4.4-0.2-7.7-0.4c-6.8-0.4-16.1-1.1-26.1-1.1
				c-10.1,0-18.8,0.6-25.2,1.1c-3.1,0.2-5.6,0.4-7.3,0.4c0-0.4-0.1-1.1-0.1-2.3c0-1.6,0.1-2.3,0.1-2.6l5.7-1.5c0,0,0.1,0,0.1,0
				c2.5-0.8,4.2-1.5,4.2-5.1v-42.1c0-18-3.6-29.2-21.3-29.2c-1.5,0-4.4,0.2-6.1,0.8c-1.1,0.4-1.7,1.4-1.5,2.5
				c0.4,2.2,0.6,4.7,0.6,7.3v60.7c0,3.6,1.6,4.4,4.2,5.1c0,0,0.1,0,0.1,0l5.7,1.5c0.1,0.3,0.1,1,0.1,2.6c0,1.1,0,1.8-0.1,2.3
				c-1.7,0-4.2-0.2-7.2-0.4c-6.3-0.4-15-1.1-25.1-1.1c-10.1,0-18.8,0.6-25.2,1.1c-3.1,0.2-5.6,0.4-7.3,0.4c0-0.4-0.1-1.1-0.1-2.3
				c0-1.6,0.1-2.3,0.1-2.6l5.7-1.5c0,0,0.1,0,0.1,0c2.5-0.8,4.2-1.5,4.2-5.1v-42.1c0-18-3.6-29.2-21.3-29.2c-1,0-2.8,0.1-4.3,0.4
				c0.1-0.1,0.1-0.2,0.2-0.3c5.1-11,17.6-23.9,36.3-23.9c17.1,0,28.7,8,32.7,22.5c0.2,0.9,1,1.5,1.9,1.6c0.1,0,0.1,0,0.2,0
				c0.8,0,1.6-0.5,2-1.3C180.7,108.9,194.1,97.4,211.5,97.4 M43,126L43,126L43,126 M43.1,198.8L43.1,198.8L43.1,198.8 M190.8,198.9
				L190.8,198.9L190.8,198.9 M117.7,198.9L117.7,198.9L117.7,198.9 M95.4,93.9c-0.6,0-1.1,0.2-1.7,0.6
				c-17.1,12.2-33.8,22.7-51.3,29.5c-1.3,0.4-1.7,0.9-1.7,4.1c0,3.4,0.4,3.8,1.7,4.1l7.3,1.3c2.1,0.4,2.6,0.6,2.6,2.8v56.2
				c0,2.1-0.4,2.6-2.6,3l-7.3,1.5c-1.3,0.2-1.7,0.9-1.7,4.7s0.4,4.5,1.7,4.5c4.9,0,19-1.5,34.6-1.5c15.6,0,28,1.5,32.9,1.5
				c1.3,0,1.7-0.6,1.7-4.5s-0.4-4.3-1.7-4.7l-5.8-1.5c-2.1-0.6-2.6-0.9-2.6-3V124c1.1-0.4,3.2-0.6,4.7-0.6c14.3,0,19,7.1,19,26.9
				v42.1c0,2.1-0.4,2.4-2.6,3l-5.8,1.5c-1.3,0.4-1.7,0.9-1.7,4.7s0.4,4.5,1.7,4.5c4.9,0,17.5-1.5,33.1-1.5s28,1.5,32.9,1.5
				c1.3,0,1.7-0.6,1.7-4.5s-0.4-4.3-1.7-4.7l-5.8-1.5c-2.1-0.6-2.6-0.9-2.6-3v-60.7c0-2.8-0.2-5.3-0.6-7.7c1.3-0.4,3.8-0.6,5.3-0.6
				c14.3,0,19,7.1,19,26.9v42.1c0,2.1-0.4,2.4-2.6,3l-5.8,1.5c-1.3,0.4-1.7,0.9-1.7,4.7s0.4,4.5,1.7,4.5c4.9,0,17.5-1.5,33.1-1.5
				c15.6,0,29.5,1.5,34.4,1.5c1.3,0,1.7-0.6,1.7-4.5s-0.4-4.5-1.7-4.7l-7.3-1.5c-2.1-0.4-2.6-0.9-2.6-3v-60.7
				c0-23.1-13.9-36.6-36.4-36.6c-18.2,0-32.3,11.8-38.3,24.2c-4.3-15.4-16.9-24.2-34.9-24.2c-18.8,0-32.5,12.6-38.3,25.2
				c0-12.8,0.9-19.9,0.9-23.3C100.9,95.6,96.9,93.9,95.4,93.9L95.4,93.9z"/>
		</g>
	</g>
</g>
</svg>
